<svg width="24" height="24" viewBox="0 0 24 24" fill="none" xmlns="http://www.w3.org/2000/svg">
<path d="M23.997 0L15.998 7.999H10.666C9.19366 7.999 7.999 9.19266 7.999 10.665C7.999 10.9647 8.04895 11.2533 8.13984 11.522C8.27269 11.9136 8.49345 12.2632 8.77912 12.5489C9.26158 13.0323 9.92883 13.332 10.665 13.332L7.999 15.998C6.41778 15.998 4.94344 15.5385 3.70184 14.7474C1.47534 13.326 0 10.8358 0 7.999C0 3.58097 3.58097 0 7.999 0H23.997Z" fill="url(#paint0_linear_114_23547)"/>
<path d="M23.997 15.998C23.997 20.416 20.416 23.997 15.998 23.997H0L7.999 15.998H13.332C14.8043 15.998 15.998 14.8043 15.998 13.332C15.998 13.294 15.998 13.257 15.996 13.2201C15.996 13.1941 15.994 13.1701 15.992 13.1452C15.992 13.1392 15.992 13.1342 15.99 13.1272C15.99 13.1112 15.988 13.0942 15.986 13.0782C15.986 13.0643 15.984 13.0503 15.982 13.0363C15.98 13.0223 15.979 13.0063 15.976 12.9923C15.976 12.9833 15.974 12.9744 15.973 12.9664C15.97 12.9424 15.966 12.9194 15.963 12.8964C15.963 12.8944 15.963 12.8925 15.961 12.8905C15.956 12.8605 15.9511 12.8315 15.9441 12.8016C15.9441 12.7926 15.9411 12.7836 15.9381 12.7746C15.9321 12.7446 15.9251 12.7147 15.9181 12.6847C15.9161 12.6787 15.9151 12.6727 15.9131 12.6667C15.9061 12.6387 15.8981 12.6108 15.8901 12.5828C15.8801 12.5478 15.8691 12.5129 15.8572 12.4779C15.8362 12.416 15.8122 12.3541 15.7872 12.2941C15.7703 12.2552 15.7533 12.2162 15.7343 12.1783C15.7173 12.1413 15.6993 12.1063 15.6804 12.0714C15.6564 12.0264 15.6304 11.9825 15.6054 11.9395C15.5885 11.9126 15.5715 11.8856 15.5545 11.8606C15.5355 11.8306 15.5155 11.8027 15.4946 11.7747C15.4856 11.7617 15.4766 11.7487 15.4666 11.7368C15.4516 11.7158 15.4356 11.6958 15.4187 11.6748C15.4047 11.6558 15.3887 11.6369 15.3727 11.6179C15.3507 11.5919 15.3278 11.5659 15.3048 11.54C15.2768 11.509 15.2488 11.479 15.2189 11.4501C14.7364 10.9666 14.0692 10.668 13.333 10.668L15.999 8.00195C16.0509 8.00195 16.1029 8.00195 16.1548 8.00395C16.1938 8.00395 16.2327 8.00595 16.2727 8.00695C16.3786 8.00994 16.4835 8.01594 16.5873 8.02393C16.6213 8.02593 16.6563 8.02892 16.6902 8.03292C16.8211 8.04291 16.9519 8.05789 17.0808 8.07487C17.1187 8.07987 17.1557 8.08486 17.1937 8.09085C17.2436 8.09785 17.2945 8.10584 17.3445 8.11483C17.3794 8.12082 17.4144 8.12681 17.4494 8.13281C17.4574 8.1348 17.4664 8.1348 17.4743 8.1378C17.5203 8.14579 17.5672 8.15478 17.6132 8.16377C17.6711 8.17576 17.7301 8.18874 17.788 8.20173C17.8 8.20472 17.812 8.20772 17.8239 8.21072C17.8829 8.2247 17.9428 8.23869 18.0007 8.25367C18.0027 8.25367 18.0047 8.25367 18.0067 8.25567C18.0687 8.27165 18.1296 8.28863 18.1905 8.30561C18.2535 8.32359 18.3174 8.34257 18.3793 8.36255C18.4363 8.37953 18.4922 8.39751 18.5481 8.41649C18.5551 8.41948 18.5631 8.42248 18.5711 8.42448C18.626 8.44346 18.682 8.46244 18.7369 8.48341C18.7449 8.48541 18.7529 8.4894 18.7609 8.4924C18.8188 8.51338 18.8768 8.53435 18.9337 8.55833C18.9946 8.5813 19.0546 8.60627 19.1145 8.63224C19.1664 8.65422 19.2174 8.67619 19.2693 8.69917C19.3402 8.73113 19.4112 8.7641 19.4801 8.79806C19.534 8.82403 19.589 8.851 19.6429 8.87897C19.7008 8.90893 19.7578 8.9379 19.8137 8.96887C19.8706 8.99883 19.9266 9.0308 19.9825 9.06276C20.0385 9.09472 20.0934 9.12769 20.1493 9.16065C20.2003 9.19161 20.2522 9.22258 20.3022 9.25454C20.3072 9.25754 20.3111 9.26054 20.3161 9.26353C20.423 9.33246 20.5289 9.40438 20.6328 9.47829C20.7367 9.55221 20.8396 9.62912 20.9404 9.70903C20.9864 9.74499 21.0313 9.78095 21.0763 9.81891C21.0843 9.8249 21.0913 9.8309 21.0993 9.83689C21.2441 9.95675 21.3839 10.0816 21.5198 10.2115C21.5657 10.2564 21.6117 10.3004 21.6576 10.3463C21.7036 10.3923 21.7475 10.4372 21.7925 10.4842C21.8364 10.5301 21.8794 10.5771 21.9233 10.624C21.9993 10.7079 22.0742 10.7928 22.1461 10.8797C22.1621 10.8977 22.177 10.9177 22.192 10.9367C22.227 10.9786 22.261 11.0206 22.2949 11.0635C22.3728 11.1624 22.4497 11.2643 22.5227 11.3672C22.5227 11.3672 22.5247 11.3692 22.5247 11.3712C22.5626 11.4231 22.5986 11.476 22.6345 11.53C22.6705 11.5829 22.7055 11.6369 22.7414 11.6908C22.7754 11.7447 22.8093 11.7977 22.8423 11.8526C22.8483 11.8636 22.8553 11.8746 22.8613 11.8846C22.8883 11.9295 22.9152 11.9745 22.9412 12.0204C22.9732 12.0764 23.0051 12.1323 23.0351 12.1892C23.0581 12.2312 23.081 12.2741 23.103 12.3171C23.1619 12.432 23.2189 12.5468 23.2728 12.6647C23.2878 12.6967 23.3028 12.7286 23.3168 12.7616C23.3387 12.8105 23.3597 12.8595 23.3807 12.9094C23.4027 12.9624 23.4246 13.0163 23.4456 13.0693C23.4656 13.1192 23.4856 13.1711 23.5036 13.2221C23.5125 13.2451 23.5215 13.269 23.5295 13.293C23.5435 13.33 23.5565 13.3659 23.5685 13.4029C23.5935 13.4758 23.6184 13.5497 23.6404 13.6236C23.6584 13.6776 23.6744 13.7325 23.6894 13.7864C23.6943 13.8004 23.6983 13.8154 23.7023 13.8294C23.7183 13.8863 23.7333 13.9433 23.7483 14.0002C23.7483 14.0022 23.7503 14.0042 23.7503 14.0062C23.7643 14.0601 23.7782 14.1151 23.7902 14.169C23.8092 14.2489 23.8272 14.3308 23.8442 14.4117C23.8542 14.4597 23.8622 14.5076 23.8711 14.5566C23.8811 14.6075 23.8891 14.6585 23.8971 14.7094C23.9031 14.7464 23.9091 14.7833 23.9151 14.8213C23.9211 14.8662 23.9281 14.9112 23.9331 14.9561C23.9371 14.9841 23.9401 15.0111 23.9431 15.039C23.9491 15.086 23.9541 15.1339 23.959 15.1819V15.1839C23.966 15.2488 23.972 15.3127 23.977 15.3777C23.977 15.3836 23.977 15.3916 23.979 15.3986C23.984 15.4596 23.987 15.5195 23.99 15.5804C23.99 15.5884 23.99 15.5974 23.992 15.6064C23.995 15.6653 23.997 15.7243 23.998 15.7832C23.998 15.7922 23.998 15.8012 23.998 15.8102C24 15.8741 24 15.938 24 16.002L23.997 15.998Z" fill="url(#paint1_linear_114_23547)"/>
<g opacity="0.33">
<path d="M20.2982 9.21155L18.3044 10.6589L15.8572 12.4359C15.8362 12.374 15.8122 12.3121 15.7872 12.2521C15.7703 12.2132 15.7533 12.1742 15.7343 12.1363C15.7173 12.0993 15.6993 12.0643 15.6804 12.0294C15.6564 11.9844 15.6304 11.9405 15.6055 11.8975C15.5885 11.8706 15.5715 11.8436 15.5545 11.8186C15.5355 11.7887 15.5156 11.7607 15.4946 11.7327C15.4856 11.7197 15.4766 11.7067 15.4666 11.6948C15.4516 11.6738 15.4356 11.6538 15.4187 11.6328C15.4047 11.6139 15.3887 11.5949 15.3727 11.5759C15.3507 11.5499 15.3278 11.524 15.3048 11.498C15.2768 11.467 15.2489 11.437 15.2189 11.4081C14.7364 10.9246 14.0692 10.626 13.333 10.626L15.999 7.95996C16.051 7.95996 16.1029 7.95996 16.1548 7.96196C16.1938 7.96196 16.2327 7.96396 16.2727 7.96496C16.3786 7.96795 16.4835 7.97395 16.5873 7.98194C16.6213 7.98393 16.6563 7.98693 16.6902 7.99093C16.8211 8.00092 16.9519 8.0159 17.0808 8.03288C17.1187 8.03787 17.1557 8.04287 17.1937 8.04886C17.2436 8.05585 17.2946 8.06384 17.3445 8.07283C17.3795 8.07883 17.4144 8.08482 17.4494 8.09081C17.4574 8.09281 17.4664 8.09281 17.4743 8.09581C17.5203 8.1038 17.5672 8.11279 17.6132 8.12178C17.6711 8.13377 17.7301 8.14675 17.788 8.15974C17.8 8.16273 17.812 8.16573 17.824 8.16873C17.8829 8.18271 17.9428 8.1967 18.0008 8.21168C18.0028 8.21168 18.0048 8.21168 18.0068 8.21368C18.0687 8.22966 18.1296 8.24664 18.1905 8.26362C18.2535 8.2816 18.3174 8.30058 18.3793 8.32056C18.4363 8.33754 18.4922 8.35552 18.5481 8.37449C18.5551 8.37749 18.5631 8.38049 18.5711 8.38249C18.6261 8.40146 18.682 8.42044 18.7369 8.44142C18.7449 8.44342 18.7529 8.44741 18.7609 8.45041C18.8188 8.47139 18.8768 8.49236 18.9337 8.51634C18.9946 8.53931 19.0546 8.56428 19.1145 8.59025C19.1664 8.61223 19.2174 8.6342 19.2693 8.65718C19.3403 8.68914 19.4112 8.7221 19.4801 8.75607C19.534 8.78204 19.589 8.80901 19.6429 8.83697C19.7008 8.86694 19.7578 8.89591 19.8137 8.92687C19.8707 8.95684 19.9266 8.9888 19.9825 9.02077C20.0385 9.05273 20.0934 9.0857 20.1493 9.11866C20.2003 9.14962 20.2522 9.18059 20.3022 9.21255L20.2982 9.21155Z" fill="black"/>
<path d="M11.0116 15.958L9.1527 17.3085L8.25272 17.9628L0 23.957L7.999 15.958H11.0116Z" fill="black"/>
</g>
<defs>
<linearGradient id="paint0_linear_114_23547" x1="23.973" y1="-0.0399469" x2="1.74337e-06" y2="16.042" gradientUnits="userSpaceOnUse">
<stop stop-color="#D1FE92"/>
<stop offset="1" stop-color="#9DFE92"/>
</linearGradient>
<linearGradient id="paint1_linear_114_23547" x1="23.973" y1="8.05092" x2="2.71844e-08" y2="24.0329" gradientUnits="userSpaceOnUse">
<stop stop-color="#01615B"/>
<stop offset="1" stop-color="#099669"/>
</linearGradient>
</defs>
</svg>
