<svg width="22" height="20" viewBox="0 0 22 20" fill="none" xmlns="http://www.w3.org/2000/svg">
<path d="M1.54199 1L19.542 19M8.38627 7.91364C7.86363 8.45355 7.54199 9.18921 7.54199 10C7.54199 11.6569 8.88514 13 10.542 13C11.3645 13 12.1096 12.669 12.6516 12.133M5.04199 4.64715C3.14269 5.90034 1.69602 7.78394 1 9.99997C2.27425 14.0571 6.06455 17 10.5422 17C12.5311 17 14.3844 16.4194 15.9418 15.4184M9.54199 3.04939C9.87096 3.01673 10.2046 3 10.5422 3C15.0198 3 18.8101 5.94291 20.0844 10C19.8036 10.894 19.4007 11.7338 18.8952 12.5" stroke="#495870" stroke-width="2" stroke-linecap="round" stroke-linejoin="round"/>
</svg>
